# xmcd
#
# Track frame offsets:
#	150
#	12649
#	30798
#	55826
#	79515
#	108872
#	121391
#	136934
#	147952
#	168306
#	195270
#	216064
#	239809
#
# Disc length: 3443 seconds
#
# Revision: 0
# Processed by: cddbd v1.4PL0 Copyright (c) Steve Scherf et al.
# Submitted via: audiograbber 1.81.02
#
DISCID=a70d710d
DTITLE=Neal Pattman - Prison Blues
DYEAR=1999
DGENRE=Blues
TTITLE0=Momma Whoopin Blues
TTITLE1=Catfish Blues
TTITLE2=Shortnin Bread
TTITLE3=Talking About You Baby
TTITLE4=Market Blues
TTITLE5=Neals Testimony
TTITLE6=Prison Blues
TTITLE7=Disco Twist
TTITLE8=Going Back To Georgia
TTITLE9=Five Long Years
TTITLE10=Bottle Up And Go
TTITLE11=Oklahoma City Blues
TTITLE12=I Want Jesus To Walk With Me
EXTD=
EXTT0=
EXTT1=
EXTT2=
EXTT3=
EXTT4=
EXTT5=
EXTT6=
EXTT7=
EXTT8=
EXTT9=
EXTT10=
EXTT11=
EXTT12=
PLAYORDER=
